<svg id="Layer_1" enable-background="new 0 0 493.37 493.37" height="512" viewBox="0 0 493.37 493.37" width="512" xmlns="http://www.w3.org/2000/svg"><path d="m200.066 212.067c-8.837 0-16-7.163-16-16v-5.107c0-8.837 7.163-16 16-16s16 7.163 16 16v5.107c0 8.837-7.163 16-16 16zm93.238-16v-5.107c0-8.837-7.163-16-16-16s-16 7.163-16 16v5.107c0 8.837 7.163 16 16 16s16-7.163 16-16zm158.381-56.737c0 8.83-7.16 16-16 16h-53.33v38.41c0 72.494-56.097 141-146.34 141-77.75 0-141-63.25-141-141v-52.74c0-72.494 56.097-141 146.34-141 71.77 0 131.18 53.89 139.9 123.33h54.43c8.84 0 16 7.16 16 16zm-233.31-47.15c5.34 5.34 13.51 6.12 19.68 2.33 2.73 1.91 5.93 2.86 9.13 2.86 14.117 0 21.422-17.214 11.31-27.31l-9-9c-6.24-6.25-16.38-6.25-22.62 0l-8.5 8.5c-6.25 6.24-6.25 16.38 0 22.62zm131.98 63.15h-223.34v38.41c0 60.1 48.9 109 109 109h5.34c60.1 0 109-48.9 109-109zm-109.72 242.479c31.824-1.982 37.998-47.174 14.683-47.174h-33.263c-6.598 0-12.337 4.671-13.511 11.164-3.528 19.521 12.222 37.248 32.091 36.01zm74.383-47.174c-7.898 0-14.014 6.603-13.744 14.461 1.219 35.342-27.212 64.774-62.59 64.774-35.348 0-63.81-29.402-62.59-64.774.271-7.869-5.86-14.461-13.733-14.461-66.552 0-120.677 53.921-120.677 120.667v6.068c0 8.837 7.163 16 16 16h362c8.837 0 16-7.163 16-16v-6.068c.001-66.642-54.023-120.667-120.666-120.667z"/></svg>